STARTFONT 2.1
COMMENT This font was automatically resized by bdfresize-1.4
COMMENT   mag_x = 2/3, mag_y = 2/3, blackness = 3
COMMENT This font image is originally translated from Metafont ``dvng10''
COMMENT from devnagri package.
COMMENT DPI was ``147'', usermag ``1000'', blackness ``3''
COMMENT shrink was 1
FONT -Misc-Fixed-Medium-R-Normal--16-160-72-72-C-80-MuleIndian-2
SIZE 16 72 72
FONTBOUNDINGBOX 16 16 0 -3
STARTPROPERTIES 22
FOUNDRY "Misc"
FAMILY_NAME "Fixed"
WEIGHT_NAME "Medium"
SLANT "R"
SETWIDTH_NAME "Normal"
ADD_STYLE_NAME ""
PIXEL_SIZE 16
POINT_SIZE 160
RESOLUTION_X 72
RESOLUTION_Y 72
SPACING "C"
AVERAGE_WIDTH 160
CHARSET_REGISTRY "MuleIndian"
CHARSET_ENCODING "2"
STRIKEOUT_ASCENT 13
STRIKEOUT_DESCENT 3
X_HEIGHT 10
FACE_NAME "Indian"
COPYRIGHT "Public domain"
FONT_ASCENT 13
FONT_DESCENT 3
DEFAULT_CHAR 32
ENDPROPERTIES
CHARS 376
STARTCHAR c2121
ENCODING 8481
SWIDTH 334 0
DWIDTH 16 0
BBX 16 3 0 10
BITMAP
0054
0034
001c
ENDCHAR
STARTCHAR c2122
ENCODING 8482
SWIDTH 334 0
DWIDTH 16 0
BBX 16 2 0 10
BITMAP
0008
0008
ENDCHAR
STARTCHAR c2123
ENCODING 8483
SWIDTH 334 0
DWIDTH 16 0
BBX 16 6 0 1
BITMAP
0800
1800
0000
0000
1800
0800
ENDCHAR
STARTCHAR c2124
ENCODING 8484
SWIDTH 334 0
DWIDTH 16 0
BBX 16 10 0 0
BITMAP
3dff
3eff
0660
1e60
5ee0
63e0
2760
1e60
0c60
0020
ENDCHAR
STARTCHAR c2125
ENCODING 8485
SWIDTH 334 0
DWIDTH 16 0
BBX 16 10 0 0
BITMAP
3dff
3eff
0666
1e66
5ee6
63e6
2766
1e66
0c66
0022
ENDCHAR
STARTCHAR c2126
ENCODING 8486
SWIDTH 334 0
DWIDTH 16 0
BBX 16 10 0 -1
BITMAP
ffff
7fff
0f80
0f00
0700
0380
0f80
0f00
0080
00c0
ENDCHAR
STARTCHAR c2127
ENCODING 8487
SWIDTH 334 0
DWIDTH 16 0
BBX 16 14 0 -1
BITMAP
0380
03c0
0300
fffe
ffff
0780
0f80
0c00
0780
0080
0f80
0f00
0080
00c0
ENDCHAR
STARTCHAR c2128
ENCODING 8488
SWIDTH 334 0
DWIDTH 16 0
BBX 16 9 0 1
BITMAP
ffff
7fff
0060
03c0
07c0
0c40
0460
03e0
01c0
ENDCHAR
STARTCHAR c2129
ENCODING 8489
SWIDTH 334 0
DWIDTH 16 0
BBX 16 9 0 1
BITMAP
ffff
7fff
0180
0f00
1fe0
31f0
1198
0fb8
0730
ENDCHAR
STARTCHAR c212a
ENCODING 8490
SWIDTH 334 0
DWIDTH 16 0
BBX 16 10 0 0
BITMAP
ffff
7fff
3f00
3f70
03f0
07b0
1f38
1b70
0378
013c
ENDCHAR
STARTCHAR c212b
ENCODING 8491
SWIDTH 334 0
DWIDTH 16 0
BBX 16 16 0 -3
BITMAP
0e00
07c0
00e0
ffff
7fff
0cc0
0cc0
0cc0
0cc0
04c0
0600
0100
00c0
0020
0030
0060
ENDCHAR
STARTCHAR c212c
ENCODING 8492
SWIDTH 334 0
DWIDTH 16 0
BBX 16 13 0 -3
BITMAP
ffff
7fff
0cc0
0cc0
0cc0
0dc0
04c0
0600
0100
00c0
0020
0030
0060
ENDCHAR
STARTCHAR c212d
ENCODING 8493
SWIDTH 334 0
DWIDTH 16 0
BBX 16 16 0 -3
BITMAP
0700
0180
00c0
ffff
7fff
0cc0
0cc0
0cc0
0cc0
04c0
0600
0100
00c0
0020
0030
0060
ENDCHAR
STARTCHAR c212e
ENCODING 8494
SWIDTH 334 0
DWIDTH 16 0
BBX 16 16 0 -3
BITMAP
04c0
02c0
0180
ffff
7fff
0cc0
0cc0
0cc0
0cc0
04c0
0600
0100
00c0
0020
0030
0060
ENDCHAR
STARTCHAR c212f
ENCODING 8495
SWIDTH 334 0
DWIDTH 16 0
BBX 16 13 0 0
BITMAP
01c0
007c
000e
3dff
7dff
0666
0e66
5ee6
63e6
27e6
1e66
0c66
0022
ENDCHAR
STARTCHAR c2130
ENCODING 8496
SWIDTH 334 0
DWIDTH 16 0
BBX 16 13 0 0
BITMAP
0070
0018
000c
3dff
7dff
0666
0e66
5ee6
63e6
27e6
1e66
0c66
0022
ENDCHAR
STARTCHAR c2131
ENCODING 8497
SWIDTH 334 0
DWIDTH 16 0
BBX 16 13 0 0
BITMAP
0038
00cc
003c
19fe
7dff
2666
0666
1ce6
6fe6
23e6
1e66
0c66
0022
ENDCHAR
STARTCHAR c2132
ENCODING 8498
SWIDTH 334 0
DWIDTH 16 0
BBX 16 13 0 0
BITMAP
0026
0016
000c
3dff
7dff
0666
0e66
5ee6
63e6
27e6
1e66
0c66
0022
ENDCHAR
STARTCHAR c2133
ENCODING 8499
SWIDTH 334 0
DWIDTH 16 0
BBX 16 10 0 0
BITMAP
ffff
7fff
0f00
1fe0
1bb0
1b30
0f30
0330
0330
0100
ENDCHAR
STARTCHAR c2134
ENCODING 8500
SWIDTH 334 0
DWIDTH 16 0
BBX 16 10 0 0
BITMAP
ffff
7fff
0630
1ff0
1f30
0f30
0df0
0430
0230
0130
ENDCHAR
STARTCHAR c2135
ENCODING 8501
SWIDTH 334 0
DWIDTH 16 0
BBX 16 10 0 0
BITMAP
ffff
7fff
0660
0660
0e60
0e60
0e60
0060
0060
0020
ENDCHAR
STARTCHAR c2136
ENCODING 8502
SWIDTH 334 0
DWIDTH 16 0
BBX 16 10 0 0
BITMAP
ffff
7fff
0c60
0760
0c60
04e0
03e0
0060
0060
0020
ENDCHAR
STARTCHAR c2137
ENCODING 8503
SWIDTH 334 0
DWIDTH 16 0
BBX 16 8 0 1
BITMAP
ffff
7fff
07c0
0f80
07b0
1bc0
0fc0
0780
ENDCHAR
STARTCHAR c2138
ENCODING 8504
SWIDTH 334 0
DWIDTH 16 0
BBX 16 10 0 0
BITMAP
ffff
7fff
0060
1fe0
0c60
04e0
03e0
0060
0060
0020
ENDCHAR
STARTCHAR c2139
ENCODING 8505
SWIDTH 334 0
DWIDTH 16 0
BBX 16 11 0 -1
BITMAP
ffff
7fff
1ee0
3ef0
10f0
0f70
0c30
0cf0
0fc8
079c
0018
ENDCHAR
STARTCHAR c213a
ENCODING 8506
SWIDTH 334 0
DWIDTH 16 0
BBX 16 10 0 0
BITMAP
ffff
7fff
0030
13f0
09b0
0cb0
04f0
03b0
01b0
0010
ENDCHAR
STARTCHAR c213b
ENCODING 8507
SWIDTH 334 0
DWIDTH 16 0
BBX 16 10 0 -1
BITMAP
ffff
7fff
0f30
1f30
0ff0
07f0
0fb0
0f30
0110
0080
ENDCHAR
STARTCHAR c213c
ENCODING 8508
SWIDTH 334 0
DWIDTH 16 0
BBX 16 10 0 0
BITMAP
ffff
7fff
0430
0630
03f0
0bf0
0f30
0f30
0630
0030
ENDCHAR
STARTCHAR c213d
ENCODING 8509
SWIDTH 334 0
DWIDTH 16 0
BBX 16 9 0 1
BITMAP
ffff
7fff
00c0
07c0
0700
0c00
0400
07f0
03c0
ENDCHAR
STARTCHAR c213e
ENCODING 8510
SWIDTH 334 0
DWIDTH 16 0
BBX 16 9 0 1
BITMAP
ffff
7fff
00c0
07c0
0e40
0c20
0c30
07e0
03c0
ENDCHAR
STARTCHAR c213f
ENCODING 8511
SWIDTH 334 0
DWIDTH 16 0
BBX 16 8 0 1
BITMAP
ffff
7fff
03e0
03c0
01c0
0ce0
07e0
03c0
ENDCHAR
STARTCHAR c2140
ENCODING 8512
SWIDTH 334 0
DWIDTH 16 0
BBX 16 9 0 1
BITMAP
ffff
7fff
03c0
07c0
0c00
0cc0
05a0
03f0
01e0
ENDCHAR
STARTCHAR c2141
ENCODING 8513
SWIDTH 334 0
DWIDTH 16 0
BBX 16 10 0 0
BITMAP
ffff
7fff
0db0
0db0
0db0
05b0
0330
0030
0030
0030
ENDCHAR
STARTCHAR c2142
ENCODING 8514
SWIDTH 334 0
DWIDTH 16 0
BBX 16 10 0 0
BITMAP
ffff
7fff
0060
07e0
0c60
0c60
0460
0660
0260
0120
ENDCHAR
STARTCHAR c2143
ENCODING 8515
SWIDTH 334 0
DWIDTH 16 0
BBX 16 10 0 0
BITMAP
06ff
0f7f
0730
0730
0e30
0470
03f0
0030
0030
0030
ENDCHAR
STARTCHAR c2144
ENCODING 8516
SWIDTH 334 0
DWIDTH 16 0
BBX 16 9 0 1
BITMAP
ffff
7fff
03e0
07c0
0600
06c0
03e0
01e0
0020
ENDCHAR
STARTCHAR c2145
ENCODING 8517
SWIDTH 334 0
DWIDTH 16 0
BBX 16 10 0 0
BITMAP
0dff
0cff
0c60
0760
0c60
04e0
03e0
0060
0060
0020
ENDCHAR
STARTCHAR c2146
ENCODING 8518
SWIDTH 334 0
DWIDTH 16 0
BBX 16 10 0 0
BITMAP
ffff
7fff
0060
03e0
07e0
0660
0060
0060
0060
0020
ENDCHAR
STARTCHAR c2147
ENCODING 8519
SWIDTH 334 0
DWIDTH 16 0
BBX 16 10 0 -1
BITMAP
ffff
7fff
0060
07e0
07e0
0260
0060
0060
0360
0300
ENDCHAR
STARTCHAR c2148
ENCODING 8520
SWIDTH 334 0
DWIDTH 16 0
BBX 16 10 0 0
BITMAP
ffff
7fff
0660
0660
0260
01e0
00e0
0060
0060
0020
ENDCHAR
STARTCHAR c2149
ENCODING 8521
SWIDTH 334 0
DWIDTH 16 0
BBX 16 10 0 0
BITMAP
ffff
7fff
1980
19f0
09d8
0798
0398
01b0
0190
0080
ENDCHAR
STARTCHAR c214a
ENCODING 8522
SWIDTH 334 0
DWIDTH 16 0
BBX 16 10 0 0
BITMAP
ffff
7fff
03e0
07e0
0d60
05e0
03e0
03e0
0060
0020
ENDCHAR
STARTCHAR c214b
ENCODING 8523
SWIDTH 334 0
DWIDTH 16 0
BBX 16 10 0 0
BITMAP
19ff
0cff
0660
0660
0fe0
0fe0
0660
0060
0060
0020
ENDCHAR
STARTCHAR c214c
ENCODING 8524
SWIDTH 334 0
DWIDTH 16 0
BBX 16 10 0 0
BITMAP
ffff
7fff
0630
0630
0ff0
0ff0
0e30
0030
0030
0030
ENDCHAR
STARTCHAR c214d
ENCODING 8525
SWIDTH 334 0
DWIDTH 16 0
BBX 16 10 0 0
BITMAP
fffe
7fff
0360
0e60
0c60
04e0
03e0
0060
0060
0020
ENDCHAR
STARTCHAR c214e
ENCODING 8526
SWIDTH 334 0
DWIDTH 16 0
BBX 16 12 0 -2
BITMAP
ffff
7fff
0360
0e60
0c60
07e0
03e0
0060
0060
0020
0100
0100
ENDCHAR
STARTCHAR c214f
ENCODING 8527
SWIDTH 334 0
DWIDTH 16 0
BBX 16 10 0 0
BITMAP
ffff
7fff
0300
0700
0700
0300
0300
0100
00c0
0060
ENDCHAR
STARTCHAR c2150
ENCODING 8528
SWIDTH 334 0
DWIDTH 16 0
BBX 16 12 0 -2
BITMAP
ffff
7fff
0300
0700
0700
0300
0300
0100
00c0
0060
0100
0100
ENDCHAR
STARTCHAR c2151
ENCODING 8529
SWIDTH 334 0
DWIDTH 16 0
BBX 16 10 0 0
BITMAP
ffff
7fff
0030
0f70
0cf0
0cf0
0c30
0430
0430
0210
ENDCHAR
STARTCHAR c2152
ENCODING 8530
SWIDTH 334 0
DWIDTH 16 0
BBX 16 9 0 1
BITMAP
ffff
7fff
00c0
1fe0
1b90
3398
1318
1ff8
0ef0
ENDCHAR
STARTCHAR c2153
ENCODING 8531
SWIDTH 334 0
DWIDTH 16 0
BBX 16 12 0 -2
BITMAP
ffff
7fff
00c0
0ce0
1b90
3398
3318
1338
0ff0
0000
0100
0100
ENDCHAR
STARTCHAR c2154
ENCODING 8532
SWIDTH 334 0
DWIDTH 16 0
BBX 16 10 0 0
BITMAP
ffff
7fff
03e0
07e0
0c60
0460
03e0
03e0
0060
0020
ENDCHAR
STARTCHAR c2155
ENCODING 8533
SWIDTH 334 0
DWIDTH 16 0
BBX 16 10 0 0
BITMAP
ffff
7fff
0cf0
04f0
03f0
03f0
0fb0
0f30
01b0
0090
ENDCHAR
STARTCHAR c2156
ENCODING 8534
SWIDTH 334 0
DWIDTH 16 0
BBX 16 10 0 0
BITMAP
ffff
7fff
0760
07e0
02e0
01e0
00e0
0060
0060
0020
ENDCHAR
STARTCHAR c2157
ENCODING 8535
SWIDTH 334 0
DWIDTH 16 0
BBX 16 10 0 0
BITMAP
ffff
7fff
0630
0e30
0ff0
0df0
0430
0630
0230
0130
ENDCHAR
STARTCHAR c2158
ENCODING 8536
SWIDTH 334 0
DWIDTH 16 0
BBX 16 12 0 -2
BITMAP
ffff
7fff
07c0
0fc0
0400
07c0
07e0
0c30
04e0
0300
01c0
0060
ENDCHAR
STARTCHAR c2159
ENCODING 8537
SWIDTH 334 0
DWIDTH 16 0
BBX 16 16 0 -3
BITMAP
ffff
8001
8001
8001
8001
8001
8001
8001
8001
8001
8001
8001
8001
8001
8001
ffff
ENDCHAR
STARTCHAR c215a
ENCODING 8538
SWIDTH 334 0
DWIDTH 16 0
BBX 16 10 0 0
BITMAP
1f00
0f00
0c00
0c00
0c00
0c00
0c00
0c00
0c00
0c00
ENDCHAR
STARTCHAR c215b
ENCODING 8539
SWIDTH 334 0
DWIDTH 16 0
BBX 16 13 0 0
BITMAP
0780
0ce0
0c00
1f00
1f80
0c00
0c00
0c00
0c00
0c00
0c00
0c00
0c00
ENDCHAR
STARTCHAR c215c
ENCODING 8540
SWIDTH 334 0
DWIDTH 16 0
BBX 16 13 0 0
BITMAP
7800
cc00
c600
0fc0
07e0
0300
0300
0300
0300
0300
0300
0300
0300
ENDCHAR
STARTCHAR c215d
ENCODING 8541
SWIDTH 334 0
DWIDTH 16 0
BBX 16 4 0 -3
BITMAP
06e0
03f0
01f0
00f0
ENDCHAR
STARTCHAR c215e
ENCODING 8542
SWIDTH 334 0
DWIDTH 16 0
BBX 16 4 0 -3
BITMAP
03c0
03e0
03b0
0190
ENDCHAR
STARTCHAR c215f
ENCODING 8543
SWIDTH 334 0
DWIDTH 16 0
BBX 16 4 0 -3
BITMAP
01c0
03c0
01e0
00f0
ENDCHAR
STARTCHAR c2160
ENCODING 8544
SWIDTH 334 0
DWIDTH 16 0
BBX 16 4 0 9
BITMAP
3000
1e00
0f00
0180
ENDCHAR
STARTCHAR c2161
ENCODING 8545
SWIDTH 334 0
DWIDTH 16 0
BBX 16 4 0 9
BITMAP
1c00
0e00
0100
0180
ENDCHAR
STARTCHAR c2162
ENCODING 8546
SWIDTH 334 0
DWIDTH 16 0
BBX 16 4 0 9
BITMAP
0200
1d00
0780
0080
ENDCHAR
STARTCHAR c2163
ENCODING 8547
SWIDTH 334 0
DWIDTH 16 0
BBX 16 3 0 10
BITMAP
0980
0580
0300
ENDCHAR
STARTCHAR c2164
ENCODING 8548
SWIDTH 334 0
DWIDTH 16 0
BBX 16 13 0 0
BITMAP
1800
0f00
01c0
03f0
01f8
00c0
00c0
00c0
00c0
00c0
00c0
00c0
00c0
ENDCHAR
STARTCHAR c2165
ENCODING 8549
SWIDTH 334 0
DWIDTH 16 0
BBX 16 13 0 0
BITMAP
0e00
0300
0180
03f0
01f8
00c0
00c0
00c0
00c0
00c0
00c0
00c0
00c0
ENDCHAR
STARTCHAR c2166
ENCODING 8550
SWIDTH 334 0
DWIDTH 16 0
BBX 16 13 0 0
BITMAP
0200
1d00
0780
03f0
01f8
00c0
00c0
00c0
00c0
00c0
00c0
00c0
00c0
ENDCHAR
STARTCHAR c2167
ENCODING 8551
SWIDTH 334 0
DWIDTH 16 0
BBX 16 13 0 0
BITMAP
04c0
02c0
0180
03f0
01f8
00c0
00c0
00c0
00c0
00c0
00c0
00c0
00c0
ENDCHAR
STARTCHAR c2168
ENCODING 8552
SWIDTH 334 0
DWIDTH 16 0
BBX 16 3 0 -3
BITMAP
0700
0380
0040
ENDCHAR
STARTCHAR c2169
ENCODING 8553
SWIDTH 334 0
DWIDTH 16 0
BBX 16 2 0 -3
BITMAP
0080
0080
ENDCHAR
STARTCHAR c216a
ENCODING 8554
SWIDTH 334 0
DWIDTH 16 0
BBX 16 10 0 0
BITMAP
0400
0600
0600
0600
0600
0600
0600
0600
0600
0200
ENDCHAR
STARTCHAR c216b
ENCODING 8555
SWIDTH 334 0
DWIDTH 16 0
BBX 16 16 0 -3
BITMAP
0000
0000
0000
0000
0000
0000
0000
0000
0000
0000
0000
0000
0000
0000
0000
0000
ENDCHAR
STARTCHAR c216c
ENCODING 8556
SWIDTH 334 0
DWIDTH 16 0
BBX 16 16 0 -3
BITMAP
0000
0000
0000
0000
0000
0000
0000
0000
0000
0000
0000
0000
0000
0000
0000
0000
ENDCHAR
STARTCHAR c216d
ENCODING 8557
SWIDTH 334 0
DWIDTH 16 0
BBX 16 16 0 -3
BITMAP
0000
0000
0000
0000
0000
0000
0000
0000
0000
0000
0000
0000
0000
0000
0000
0000
ENDCHAR
STARTCHAR c216e
ENCODING 8558
SWIDTH 334 0
DWIDTH 16 0
BBX 16 16 0 -3
BITMAP
0000
0000
0000
0000
0000
0000
0000
0000
0000
0000
0000
0000
0000
0000
0000
0000
ENDCHAR
STARTCHAR c216f
ENCODING 8559
SWIDTH 334 0
DWIDTH 16 0
BBX 16 16 0 -3
BITMAP
0000
0000
0000
0000
0000
0000
0000
0000
0000
0000
0000
0000
0000
0000
0000
0000
ENDCHAR
STARTCHAR c2170
ENCODING 8560
SWIDTH 334 0
DWIDTH 16 0
BBX 16 16 0 -3
BITMAP
0000
0000
0000
0000
0000
0000
0000
0000
0000
0000
0000
0000
0000
0000
0000
0000
ENDCHAR
STARTCHAR c2171
ENCODING 8561
SWIDTH 334 0
DWIDTH 16 0
BBX 16 6 0 2
BITMAP
0c00
1e00
3300
1300
1f00
0e00
ENDCHAR
STARTCHAR c2172
ENCODING 8562
SWIDTH 334 0
DWIDTH 16 0
BBX 16 12 0 -2
BITMAP
0300
0780
06c0
06c0
03c0
0180
0700
0600
0200
0100
0080
00c0
ENDCHAR
STARTCHAR c2173
ENCODING 8563
SWIDTH 334 0
DWIDTH 16 0
BBX 16 10 0 -1
BITMAP
1f00
0f80
00c0
01c0
1f80
0f00
0200
0300
0100
0080
ENDCHAR
STARTCHAR c2174
ENCODING 8564
SWIDTH 334 0
DWIDTH 16 0
BBX 16 10 0 -1
BITMAP
1c00
0e00
1f00
1e00
0300
1700
1e00
0c00
0200
0300
ENDCHAR
STARTCHAR c2175
ENCODING 8565
SWIDTH 334 0
DWIDTH 16 0
BBX 16 8 0 1
BITMAP
10c0
09c0
0780
0700
0f00
0f00
0f00
0700
ENDCHAR
STARTCHAR c2176
ENCODING 8566
SWIDTH 334 0
DWIDTH 16 0
BBX 16 10 0 -1
BITMAP
3300
3300
1300
1f00
0f00
0700
0e00
1e00
1900
0080
ENDCHAR
STARTCHAR c2177
ENCODING 8567
SWIDTH 334 0
DWIDTH 16 0
BBX 16 11 0 -1
BITMAP
0e00
1e00
1000
0e00
0f00
1800
1900
0f80
0700
0180
0080
ENDCHAR
STARTCHAR c2178
ENCODING 8568
SWIDTH 334 0
DWIDTH 16 0
BBX 16 9 0 1
BITMAP
3000
3380
37c0
3660
12e0
19e0
08e0
07c0
0380
ENDCHAR
STARTCHAR c2179
ENCODING 8569
SWIDTH 334 0
DWIDTH 16 0
BBX 16 8 0 0
BITMAP
1fc0
0fc0
1800
1800
1900
0f80
06c0
00c0
ENDCHAR
STARTCHAR c217a
ENCODING 8570
SWIDTH 334 0
DWIDTH 16 0
BBX 16 11 0 -1
BITMAP
1c00
3e00
1300
1e00
0c00
0c00
0400
0200
0100
0180
0180
ENDCHAR
STARTCHAR c217b
ENCODING 8571
SWIDTH 334 0
DWIDTH 16 0
BBX 16 16 0 -3
BITMAP
0000
0000
0000
0000
0000
0000
0000
0000
0000
0000
0000
0000
0000
0000
0000
0000
ENDCHAR
STARTCHAR c217c
ENCODING 8572
SWIDTH 334 0
DWIDTH 16 0
BBX 16 16 0 -3
BITMAP
0000
0000
0000
0000
0000
0000
0000
0000
0000
0000
0000
0000
0000
0000
0000
0000
ENDCHAR
STARTCHAR c217d
ENCODING 8573
SWIDTH 334 0
DWIDTH 16 0
BBX 16 16 0 -3
BITMAP
0000
0000
0000
0000
0000
0000
0000
0000
0000
0000
0000
0000
0000
0000
0000
0000
ENDCHAR
STARTCHAR c217e
ENCODING 8574
SWIDTH 334 0
DWIDTH 16 0
BBX 16 16 0 -3
BITMAP
0000
0000
0000
0000
0000
0000
0000
0000
0000
0000
0000
0000
0000
0000
0000
0000
ENDCHAR
STARTCHAR c2221
ENCODING 8737
SWIDTH 334 0
DWIDTH 16 0
BBX 16 10 0 0
BITMAP
ffff
7fff
000c
37fc
330c
11cc
09dc
0ffc
03ec
00cc
ENDCHAR
STARTCHAR c2222
ENCODING 8738
SWIDTH 334 0
DWIDTH 16 0
BBX 16 10 0 0
BITMAP
ffff
7fff
1980
19f0
09d8
0798
1b98
17b0
0f90
0c80
ENDCHAR
STARTCHAR c2223
ENCODING 8739
SWIDTH 334 0
DWIDTH 16 0
BBX 16 10 0 0
BITMAP
ffff
7fff
1d80
1ff0
03d8
0398
1f98
0d98
0190
0080
ENDCHAR
STARTCHAR c2224
ENCODING 8740
SWIDTH 334 0
DWIDTH 16 0
BBX 16 10 0 0
BITMAP
ffff
7fff
0c60
0c60
1c60
1c60
0ce0
01e0
03e0
0320
ENDCHAR
STARTCHAR c2225
ENCODING 8741
SWIDTH 334 0
DWIDTH 16 0
BBX 16 10 0 0
BITMAP
ffff
7fff
0760
07e0
00e0
00e0
07e0
0360
0060
0020
ENDCHAR
STARTCHAR c2226
ENCODING 8742
SWIDTH 334 0
DWIDTH 16 0
BBX 16 10 0 0
BITMAP
ffff
7fff
0cc0
04c0
06c0
03c0
03c0
07c0
0ec0
0040
ENDCHAR
STARTCHAR c2227
ENCODING 8743
SWIDTH 334 0
DWIDTH 16 0
BBX 16 10 0 0
BITMAP
ffff
7fff
1980
19f0
09d8
0798
0798
0fb0
1990
0080
ENDCHAR
STARTCHAR c2228
ENCODING 8744
SWIDTH 334 0
DWIDTH 16 0
BBX 16 10 0 0
BITMAP
ffff
7fff
0f30
0fb0
1cf0
08f0
01f0
0330
0030
0030
ENDCHAR
STARTCHAR c2229
ENCODING 8745
SWIDTH 334 0
DWIDTH 16 0
BBX 16 10 0 0
BITMAP
0fff
1fff
1b30
0f30
1ff0
18f0
03f0
0730
0230
0030
ENDCHAR
STARTCHAR c222a
ENCODING 8746
SWIDTH 334 0
DWIDTH 16 0
BBX 16 16 0 -3
BITMAP
0000
0000
0000
0000
0000
0000
0000
0000
0000
0000
0000
0000
0000
0000
0000
0000
ENDCHAR
STARTCHAR c222b
ENCODING 8747
SWIDTH 334 0
DWIDTH 16 0
BBX 16 16 0 -3
BITMAP
0000
0000
0000
0000
0000
0000
0000
0000
0000
0000
0000
0000
0000
0000
0000
0000
ENDCHAR
STARTCHAR c222c
ENCODING 8748
SWIDTH 334 0
DWIDTH 16 0
BBX 16 10 0 0
BITMAP
ffff
7fff
0300
0fc0
0f60
0660
02c0
0300
0100
0080
ENDCHAR
STARTCHAR c222d
ENCODING 8749
SWIDTH 334 0
DWIDTH 16 0
BBX 16 10 0 0
BITMAP
ffff
7fff
0300
0fc0
0fe0
0730
03d0
0308
0180
00c0
ENDCHAR
STARTCHAR c222e
ENCODING 8750
SWIDTH 334 0
DWIDTH 16 0
BBX 16 10 0 -1
BITMAP
ffff
7fff
0380
0fc0
0660
0660
0240
0100
0480
0400
ENDCHAR
STARTCHAR c222f
ENCODING 8751
SWIDTH 334 0
DWIDTH 16 0
BBX 16 10 0 -1
BITMAP
ffff
7fff
0600
0f80
0fc0
0fa0
0790
0200
0d80
0c80
ENDCHAR
STARTCHAR c2230
ENCODING 8752
SWIDTH 334 0
DWIDTH 16 0
BBX 16 16 0 -3
BITMAP
0000
0000
0000
0000
0000
0000
0000
0000
0000
0000
0000
0000
0000
0000
0000
0000
ENDCHAR
STARTCHAR c2231
ENCODING 8753
SWIDTH 334 0
DWIDTH 16 0
BBX 16 16 0 -3
BITMAP
0000
0000
0000
0000
0000
0000
0000
0000
0000
0000
0000
0000
0000
0000
0000
0000
ENDCHAR
STARTCHAR c2232
ENCODING 8754
SWIDTH 334 0
DWIDTH 16 0
BBX 16 16 0 -3
BITMAP
0000
0000
0000
0000
0000
0000
0000
0000
0000
0000
0000
0000
0000
0000
0000
0000
ENDCHAR
STARTCHAR c2233
ENCODING 8755
SWIDTH 334 0
DWIDTH 16 0
BBX 16 10 0 0
BITMAP
ffff
7fff
03c0
07f0
06c8
06c0
03c0
00c0
00c0
0040
ENDCHAR
STARTCHAR c2234
ENCODING 8756
SWIDTH 334 0
DWIDTH 16 0
BBX 16 10 0 0
BITMAP
ffff
7fff
0180
07f0
07c8
03cc
0378
0100
0080
0040
ENDCHAR
STARTCHAR c2235
ENCODING 8757
SWIDTH 334 0
DWIDTH 16 0
BBX 16 7 0 3
BITMAP
ffff
7fff
00c0
00c0
01c0
01c0
01c0
ENDCHAR
STARTCHAR c2236
ENCODING 8758
SWIDTH 334 0
DWIDTH 16 0
BBX 16 7 0 3
BITMAP
ffff
7fff
0100
01e0
0188
01f8
00f0
ENDCHAR
STARTCHAR c2237
ENCODING 8759
SWIDTH 334 0
DWIDTH 16 0
BBX 16 16 0 -3
BITMAP
0000
0000
0000
0000
0000
0000
0000
0000
0000
0000
0000
0000
0000
0000
0000
0000
ENDCHAR
STARTCHAR c2238
ENCODING 8760
SWIDTH 334 0
DWIDTH 16 0
BBX 16 7 0 3
BITMAP
ffff
7fff
0000
03f0
0180
01f8
00f8
ENDCHAR
STARTCHAR c2239
ENCODING 8761
SWIDTH 334 0
DWIDTH 16 0
BBX 16 16 0 -3
BITMAP
0000
0000
0000
0000
0000
0000
0000
0000
0000
0000
0000
0000
0000
0000
0000
0000
ENDCHAR
STARTCHAR c223a
ENCODING 8762
SWIDTH 334 0
DWIDTH 16 0
BBX 16 8 0 1
BITMAP
ffff
7fff
00f0
06f8
0640
0260
01e0
00c0
ENDCHAR
STARTCHAR c223b
ENCODING 8763
SWIDTH 334 0
DWIDTH 16 0
BBX 16 10 0 -1
BITMAP
ffff
7fff
03c0
07c0
03fc
01fc
03e0
03c0
0040
0020
ENDCHAR
STARTCHAR c223c
ENCODING 8764
SWIDTH 334 0
DWIDTH 16 0
BBX 16 8 0 1
BITMAP
ffff
7fff
0300
0180
00f8
02f8
03c0
0180
ENDCHAR
STARTCHAR c223d
ENCODING 8765
SWIDTH 334 0
DWIDTH 16 0
BBX 16 16 0 -3
BITMAP
0000
0000
0000
0000
0000
0000
0000
0000
0000
0000
0000
0000
0000
0000
0000
0000
ENDCHAR
STARTCHAR c223e
ENCODING 8766
SWIDTH 334 0
DWIDTH 16 0
BBX 16 16 0 -3
BITMAP
0000
0000
0000
0000
0000
0000
0000
0000
0000
0000
0000
0000
0000
0000
0000
0000
ENDCHAR
STARTCHAR c223f
ENCODING 8767
SWIDTH 334 0
DWIDTH 16 0
BBX 16 16 0 -3
BITMAP
0000
0000
0000
0000
0000
0000
0000
0000
0000
0000
0000
0000
0000
0000
0000
0000
ENDCHAR
STARTCHAR c2240
ENCODING 8768
SWIDTH 334 0
DWIDTH 16 0
BBX 16 16 0 -3
BITMAP
0000
0000
0000
0000
0000
0000
0000
0000
0000
0000
0000
0000
0000
0000
0000
0000
ENDCHAR
STARTCHAR c2241
ENCODING 8769
SWIDTH 334 0
DWIDTH 16 0
BBX 16 7 0 3
BITMAP
ffff
7fff
00d8
00d8
00d8
0078
0030
ENDCHAR
STARTCHAR c2242
ENCODING 8770
SWIDTH 334 0
DWIDTH 16 0
BBX 16 10 0 0
BITMAP
ffff
7fff
0000
00f8
0180
0180
0080
0080
0040
0020
ENDCHAR
STARTCHAR c2243
ENCODING 8771
SWIDTH 334 0
DWIDTH 16 0
BBX 16 7 0 3
BITMAP
019f
03cf
01c0
01c8
0188
01f8
00f0
ENDCHAR
STARTCHAR c2244
ENCODING 8772
SWIDTH 334 0
DWIDTH 16 0
BBX 16 16 0 -3
BITMAP
0000
0000
0000
0000
0000
0000
0000
0000
0000
0000
0000
0000
0000
0000
0000
0000
ENDCHAR
STARTCHAR c2245
ENCODING 8773
SWIDTH 334 0
DWIDTH 16 0
BBX 16 7 0 3
BITMAP
011f
030f
0100
01e0
0188
01f8
00f0
ENDCHAR
STARTCHAR c2246
ENCODING 8774
SWIDTH 334 0
DWIDTH 16 0
BBX 16 6 0 3
BITMAP
ffff
7fff
0000
00f8
01f8
00c0
ENDCHAR
STARTCHAR c2247
ENCODING 8775
SWIDTH 334 0
DWIDTH 16 0
BBX 16 10 0 -1
BITMAP
ffff
7fff
0000
00f8
01f8
00c0
0000
0000
0040
0040
ENDCHAR
STARTCHAR c2248
ENCODING 8776
SWIDTH 334 0
DWIDTH 16 0
BBX 16 6 0 3
BITMAP
ffff
7fff
00c0
00c0
0078
0038
ENDCHAR
STARTCHAR c2249
ENCODING 8777
SWIDTH 334 0
DWIDTH 16 0
BBX 16 10 0 0
BITMAP
ffff
7fff
0cc0
04f0
06c8
03c0
01c0
00c0
00c0
0040
ENDCHAR
STARTCHAR c224a
ENCODING 8778
SWIDTH 334 0
DWIDTH 16 0
BBX 16 7 0 3
BITMAP
ffff
7fff
0000
00f8
00e8
00fc
0078
ENDCHAR
STARTCHAR c224b
ENCODING 8779
SWIDTH 334 0
DWIDTH 16 0
BBX 16 7 0 3
BITMAP
031f
018f
0080
00c0
01f8
01f8
00c0
ENDCHAR
STARTCHAR c224c
ENCODING 8780
SWIDTH 334 0
DWIDTH 16 0
BBX 16 7 0 3
BITMAP
ffff
7fff
0180
0180
03f8
03f8
0380
ENDCHAR
STARTCHAR c224d
ENCODING 8781
SWIDTH 334 0
DWIDTH 16 0
BBX 16 7 0 3
BITMAP
ffff
7fff
00c0
01c8
0188
01f8
00f0
ENDCHAR
STARTCHAR c224e
ENCODING 8782
SWIDTH 334 0
DWIDTH 16 0
BBX 16 12 0 -2
BITMAP
ffff
7fff
00c0
01c0
0188
01f8
00f0
0000
0000
0000
0020
0020
ENDCHAR
STARTCHAR c224f
ENCODING 8783
SWIDTH 334 0
DWIDTH 16 0
BBX 16 16 0 -3
BITMAP
0000
0000
0000
0000
0000
0000
0000
0000
0000
0000
0000
0000
0000
0000
0000
0000
ENDCHAR
STARTCHAR c2250
ENCODING 8784
SWIDTH 334 0
DWIDTH 16 0
BBX 16 16 0 -3
BITMAP
0000
0000
0000
0000
0000
0000
0000
0000
0000
0000
0000
0000
0000
0000
0000
0000
ENDCHAR
STARTCHAR c2251
ENCODING 8785
SWIDTH 334 0
DWIDTH 16 0
BBX 16 10 0 0
BITMAP
ffff
7fff
0000
03b8
0670
0660
0200
0200
0100
0080
ENDCHAR
STARTCHAR c2252
ENCODING 8786
SWIDTH 334 0
DWIDTH 16 0
BBX 16 9 0 1
BITMAP
ffff
7fff
0000
1fe0
1b90
3398
1318
1ff8
0ef0
ENDCHAR
STARTCHAR c2253
ENCODING 8787
SWIDTH 334 0
DWIDTH 16 0
BBX 16 12 0 -2
BITMAP
ffff
7fff
0000
0ce0
1b90
3398
3318
1338
0ff0
0000
0100
0100
ENDCHAR
STARTCHAR c2254
ENCODING 8788
SWIDTH 334 0
DWIDTH 16 0
BBX 16 7 0 3
BITMAP
ffff
7fff
0000
00f8
00c8
00fc
0078
ENDCHAR
STARTCHAR c2255
ENCODING 8789
SWIDTH 334 0
DWIDTH 16 0
BBX 16 10 0 0
BITMAP
ffff
7fff
00c8
004c
003c
0038
01f0
00f0
0010
0008
ENDCHAR
STARTCHAR c2256
ENCODING 8790
SWIDTH 334 0
DWIDTH 16 0
BBX 16 6 0 3
BITMAP
ffff
7fff
00e0
00f0
0078
0038
ENDCHAR
STARTCHAR c2257
ENCODING 8791
SWIDTH 334 0
DWIDTH 16 0
BBX 16 10 0 0
BITMAP
ffff
7fff
0180
0380
03f8
0370
0100
0180
0080
0040
ENDCHAR
STARTCHAR c2258
ENCODING 8792
SWIDTH 334 0
DWIDTH 16 0
BBX 16 16 0 -3
BITMAP
0000
0000
0000
0000
0000
0000
0000
0000
0000
0000
0000
0000
0000
0000
0000
0000
ENDCHAR
STARTCHAR c2259
ENCODING 8793
SWIDTH 334 0
DWIDTH 16 0
BBX 16 16 0 -3
BITMAP
0000
0000
0000
0000
0000
0000
0000
0000
0000
0000
0000
0000
0000
0000
0000
0000
ENDCHAR
STARTCHAR c225a
ENCODING 8794
SWIDTH 334 0
DWIDTH 16 0
BBX 16 16 0 -3
BITMAP
0000
0000
0000
0000
0000
0000
0000
0000
0000
0000
0000
0000
0000
0000
0000
0000
ENDCHAR
STARTCHAR c225b
ENCODING 8795
SWIDTH 334 0
DWIDTH 16 0
BBX 16 16 0 -3
BITMAP
0000
0000
0000
0000
0000
0000
0000
0000
0000
0000
0000
0000
0000
0000
0000
0000
ENDCHAR
STARTCHAR c225c
ENCODING 8796
SWIDTH 334 0
DWIDTH 16 0
BBX 16 16 0 -3
BITMAP
0000
0000
0000
0000
0000
0000
0000
0000
0000
0000
0000
0000
0000
0000
0000
0000
ENDCHAR
STARTCHAR c225d
ENCODING 8797
SWIDTH 334 0
DWIDTH 16 0
BBX 16 10 0 0
BITMAP
ffff
7fff
0460
0660
0360
0360
07e0
03e0
0060
0020
ENDCHAR
STARTCHAR c225e
ENCODING 8798
SWIDTH 334 0
DWIDTH 16 0
BBX 16 16 0 -3
BITMAP
0000
0000
0000
0000
0000
0000
0000
0000
0000
0000
0000
0000
0000
0000
0000
0000
ENDCHAR
STARTCHAR c225f
ENCODING 8799
SWIDTH 334 0
DWIDTH 16 0
BBX 16 16 0 -3
BITMAP
0000
0000
0000
0000
0000
0000
0000
0000
0000
0000
0000
0000
0000
0000
0000
0000
ENDCHAR
STARTCHAR c2260
ENCODING 8800
SWIDTH 334 0
DWIDTH 16 0
BBX 16 8 0 2
BITMAP
ffff
7fff
0300
0300
0708
0718
0338
0030
ENDCHAR
STARTCHAR c2261
ENCODING 8801
SWIDTH 334 0
DWIDTH 16 0
BBX 16 10 0 0
BITMAP
ffff
7fff
01c0
01e0
0198
00f8
0070
00f8
01f8
00c0
ENDCHAR
STARTCHAR c2262
ENCODING 8802
SWIDTH 334 0
DWIDTH 16 0
BBX 16 10 0 0
BITMAP
ffff
7fff
0380
00f8
03f8
0388
03ec
00d8
00f8
0070
ENDCHAR
STARTCHAR c2263
ENCODING 8803
SWIDTH 334 0
DWIDTH 16 0
BBX 16 10 0 0
BITMAP
ffff
7fff
0000
07f8
0300
0300
0100
0180
00c0
0060
ENDCHAR
STARTCHAR c2264
ENCODING 8804
SWIDTH 334 0
DWIDTH 16 0
BBX 16 8 0 2
BITMAP
ffff
7fff
00e0
01f0
0008
0038
00f8
00c0
ENDCHAR
STARTCHAR c2265
ENCODING 8805
SWIDTH 334 0
DWIDTH 16 0
BBX 16 10 0 -1
BITMAP
0100
0300
01c0
01e0
0198
00f8
0070
00f8
01f8
00c0
ENDCHAR
STARTCHAR c2266
ENCODING 8806
SWIDTH 334 0
DWIDTH 16 0
BBX 16 10 0 0
BITMAP
0100
0300
0100
00e0
0188
01bc
00f8
00f0
03c0
0300
ENDCHAR
STARTCHAR c2267
ENCODING 8807
SWIDTH 334 0
DWIDTH 16 0
BBX 16 10 0 0
BITMAP
ffff
7fff
0180
00c0
0078
00f8
01c0
0080
00c0
0060
ENDCHAR
STARTCHAR c2268
ENCODING 8808
SWIDTH 334 0
DWIDTH 16 0
BBX 16 10 0 0
BITMAP
ffff
7fff
03c0
03e0
0738
000c
01fc
00cc
0078
0030
ENDCHAR
STARTCHAR c2269
ENCODING 8809
SWIDTH 334 0
DWIDTH 16 0
BBX 16 8 0 1
BITMAP
ffff
7fff
03c0
03e0
0738
0078
00e0
00c0
ENDCHAR
STARTCHAR c226a
ENCODING 8810
SWIDTH 334 0
DWIDTH 16 0
BBX 16 8 0 1
BITMAP
ffff
7fff
03c0
07e0
0778
00fc
00f8
0070
ENDCHAR
STARTCHAR c226b
ENCODING 8811
SWIDTH 334 0
DWIDTH 16 0
BBX 16 9 0 1
BITMAP
ffff
7fff
0700
0f80
06e0
01e0
0300
0300
0300
ENDCHAR
STARTCHAR c226c
ENCODING 8812
SWIDTH 334 0
DWIDTH 16 0
BBX 16 10 0 0
BITMAP
039f
03cf
03c0
03d8
03f8
06e0
0660
0260
01e0
0020
ENDCHAR
STARTCHAR c226d
ENCODING 8813
SWIDTH 334 0
DWIDTH 16 0
BBX 16 11 0 -1
BITMAP
ffff
7fff
0000
01e0
0190
0088
0040
0160
01e0
01c0
0020
ENDCHAR
STARTCHAR c226e
ENCODING 8814
SWIDTH 334 0
DWIDTH 16 0
BBX 16 16 0 -3
BITMAP
0000
0000
0000
0000
0000
0000
0000
0000
0000
0000
0000
0000
0000
0000
0000
0000
ENDCHAR
STARTCHAR c226f
ENCODING 8815
SWIDTH 334 0
DWIDTH 16 0
BBX 16 16 0 -3
BITMAP
0000
0000
0000
0000
0000
0000
0000
0000
0000
0000
0000
0000
0000
0000
0000
0000
ENDCHAR
STARTCHAR c2270
ENCODING 8816
SWIDTH 334 0
DWIDTH 16 0
BBX 16 4 0 9
BITMAP
0070
00f0
0040
0020
ENDCHAR
STARTCHAR c2271
ENCODING 8817
SWIDTH 334 0
DWIDTH 16 0
BBX 16 5 0 0
BITMAP
0040
00c0
03c0
0300
0200
ENDCHAR
STARTCHAR c2272
ENCODING 8818
SWIDTH 334 0
DWIDTH 16 0
BBX 16 4 0 -2
BITMAP
0180
03c0
0340
0200
ENDCHAR
STARTCHAR c2273
ENCODING 8819
SWIDTH 334 0
DWIDTH 16 0
BBX 16 10 0 0
BITMAP
ffff
7fff
03c0
07f0
06c8
06c0
03c0
00c0
03c0
0340
ENDCHAR
STARTCHAR c2274
ENCODING 8820
SWIDTH 334 0
DWIDTH 16 0
BBX 16 10 0 0
BITMAP
ffff
7fff
0300
07f0
07c8
03cc
0378
0100
0120
00a0
ENDCHAR
STARTCHAR c2275
ENCODING 8821
SWIDTH 334 0
DWIDTH 16 0
BBX 16 10 0 0
BITMAP
ffff
7fff
00c0
00c0
01c0
01c0
01c0
0000
0020
0020
ENDCHAR
STARTCHAR c2276
ENCODING 8822
SWIDTH 334 0
DWIDTH 16 0
BBX 16 16 0 -3
BITMAP
0000
0000
0000
0000
0000
0000
0000
0000
0000
0000
0000
0000
0000
0000
0000
0000
ENDCHAR
STARTCHAR c2277
ENCODING 8823
SWIDTH 334 0
DWIDTH 16 0
BBX 16 16 0 -3
BITMAP
0000
0000
0000
0000
0000
0000
0000
0000
0000
0000
0000
0000
0000
0000
0000
0000
ENDCHAR
STARTCHAR c2278
ENCODING 8824
SWIDTH 334 0
DWIDTH 16 0
BBX 16 16 0 -3
BITMAP
0000
0000
0000
0000
0000
0000
0000
0000
0000
0000
0000
0000
0000
0000
0000
0000
ENDCHAR
STARTCHAR c2279
ENCODING 8825
SWIDTH 334 0
DWIDTH 16 0
BBX 16 10 0 0
BITMAP
ffff
7fff
0cc0
04f0
06c8
03c0
01c0
00c0
03c0
0340
ENDCHAR
STARTCHAR c227a
ENCODING 8826
SWIDTH 334 0
DWIDTH 16 0
BBX 16 10 0 0
BITMAP
ffff
7fff
0000
04f8
0640
0260
0360
01e0
00f0
0030
ENDCHAR
STARTCHAR c227b
ENCODING 8827
SWIDTH 334 0
DWIDTH 16 0
BBX 16 16 0 -3
BITMAP
0000
0000
0000
0000
0000
0000
0000
0000
0000
0000
0000
0000
0000
0000
0000
0000
ENDCHAR
STARTCHAR c227c
ENCODING 8828
SWIDTH 334 0
DWIDTH 16 0
BBX 16 16 0 -3
BITMAP
0000
0000
0000
0000
0000
0000
0000
0000
0000
0000
0000
0000
0000
0000
0000
0000
ENDCHAR
STARTCHAR c227d
ENCODING 8829
SWIDTH 334 0
DWIDTH 16 0
BBX 16 16 0 -3
BITMAP
0000
0000
0000
0000
0000
0000
0000
0000
0000
0000
0000
0000
0000
0000
0000
0000
ENDCHAR
STARTCHAR c227e
ENCODING 8830
SWIDTH 334 0
DWIDTH 16 0
BBX 16 16 0 -3
BITMAP
0000
0000
0000
0000
0000
0000
0000
0000
0000
0000
0000
0000
0000
0000
0000
0000
ENDCHAR
STARTCHAR c2321
ENCODING 8993
SWIDTH 334 0
DWIDTH 16 0
BBX 16 11 0 0
BITMAP
0020
0120
008c
3e7c
0238
0700
1f70
0df8
219c
1fbc
0f10
ENDCHAR
STARTCHAR c2322
ENCODING 8994
SWIDTH 334 0
DWIDTH 16 0
BBX 16 16 0 -3
BITMAP
0000
0000
0000
0000
0000
0000
0000
0000
0000
0000
0000
0000
0000
0000
0000
0000
ENDCHAR
STARTCHAR c2323
ENCODING 8995
SWIDTH 334 0
DWIDTH 16 0
BBX 16 16 0 -3
BITMAP
0000
0000
0000
0000
0000
0000
0000
0000
0000
0000
0000
0000
0000
0000
0000
0000
ENDCHAR
STARTCHAR c2324
ENCODING 8996
SWIDTH 334 0
DWIDTH 16 0
BBX 16 16 0 -3
BITMAP
0000
0000
0000
0000
0000
0000
0000
0000
0000
0000
0000
0000
0000
0000
0000
0000
ENDCHAR
STARTCHAR c2325
ENCODING 8997
SWIDTH 334 0
DWIDTH 16 0
BBX 16 16 0 -3
BITMAP
0000
0000
0000
0000
0000
0000
0000
0000
0000
0000
0000
0000
0000
0000
0000
0000
ENDCHAR
STARTCHAR c2326
ENCODING 8998
SWIDTH 334 0
DWIDTH 16 0
BBX 16 11 0 -1
BITMAP
ffff
7fff
0060
1fe0
3390
3118
1038
18f0
08c0
04f0
0070
ENDCHAR
STARTCHAR c2327
ENCODING 8999
SWIDTH 334 0
DWIDTH 16 0
BBX 16 13 0 -3
BITMAP
ffff
7fff
0060
1fe0
3390
3118
1038
18f0
08c0
04f0
00f0
0070
0038
ENDCHAR
STARTCHAR c2328
ENCODING 9000
SWIDTH 334 0
DWIDTH 16 0
BBX 16 16 0 -3
BITMAP
0000
0000
0000
0000
0000
0000
0000
0000
0000
0000
0000
0000
0000
0000
0000
0000
ENDCHAR
STARTCHAR c2329
ENCODING 9001
SWIDTH 334 0
DWIDTH 16 0
BBX 16 16 0 -3
BITMAP
0000
0000
0000
0000
0000
0000
0000
0000
0000
0000
0000
0000
0000
0000
0000
0000
ENDCHAR
STARTCHAR c232a
ENCODING 9002
SWIDTH 334 0
DWIDTH 16 0
BBX 16 12 0 -3
BITMAP
ffff
7fff
3f20
3f70
03f0
0fb0
1f78
0360
013c
0038
003c
001c
ENDCHAR
STARTCHAR c232b
ENCODING 9003
SWIDTH 334 0
DWIDTH 16 0
BBX 16 16 0 -3
BITMAP
0000
0000
0000
0000
0000
0000
0000
0000
0000
0000
0000
0000
0000
0000
0000
0000
ENDCHAR
STARTCHAR c232c
ENCODING 9004
SWIDTH 334 0
DWIDTH 16 0
BBX 16 16 0 -3
BITMAP
0000
0000
0000
0000
0000
0000
0000
0000
0000
0000
0000
0000
0000
0000
0000
0000
ENDCHAR
STARTCHAR c232d
ENCODING 9005
SWIDTH 334 0
DWIDTH 16 0
BBX 16 16 0 -3
BITMAP
0000
0000
0000
0000
0000
0000
0000
0000
0000
0000
0000
0000
0000
0000
0000
0000
ENDCHAR
STARTCHAR c232e
ENCODING 9006
SWIDTH 334 0
DWIDTH 16 0
BBX 16 16 0 -3
BITMAP
0000
0000
0000
0000
0000
0000
0000
0000
0000
0000
0000
0000
0000
0000
0000
0000
ENDCHAR
STARTCHAR c232f
ENCODING 9007
SWIDTH 334 0
DWIDTH 16 0
BBX 16 16 0 -3
BITMAP
0000
0000
0000
0000
0000
0000
0000
0000
0000
0000
0000
0000
0000
0000
0000
0000
ENDCHAR
STARTCHAR c2330
ENCODING 9008
SWIDTH 334 0
DWIDTH 16 0
BBX 16 16 0 -3
BITMAP
0000
0000
0000
0000
0000
0000
0000
0000
0000
0000
0000
0000
0000
0000
0000
0000
ENDCHAR
STARTCHAR c2331
ENCODING 9009
SWIDTH 334 0
DWIDTH 16 0
BBX 16 16 0 -3
BITMAP
0000
0000
0000
0000
0000
0000
0000
0000
0000
0000
0000
0000
0000
0000
0000
0000
ENDCHAR
STARTCHAR c2332
ENCODING 9010
SWIDTH 334 0
DWIDTH 16 0
BBX 16 16 0 -3
BITMAP
0000
0000
0000
0000
0000
0000
0000
0000
0000
0000
0000
0000
0000
0000
0000
0000
ENDCHAR
STARTCHAR c2333
ENCODING 9011
SWIDTH 334 0
DWIDTH 16 0
BBX 16 10 0 0
BITMAP
ffff
7fff
0f00
1fe0
1bb0
1b30
0f30
0330
0f30
0d00
ENDCHAR
STARTCHAR c2334
ENCODING 9012
SWIDTH 334 0
DWIDTH 16 0
BBX 16 10 0 0
BITMAP
ffff
7fff
0630
0ff0
0f30
0d30
04f0
0630
02f0
03d0
ENDCHAR
STARTCHAR c2335
ENCODING 9013
SWIDTH 334 0
DWIDTH 16 0
BBX 16 10 0 0
BITMAP
ffff
7fff
0660
0660
0e60
0e60
0e60
0060
0160
0120
ENDCHAR
STARTCHAR c2336
ENCODING 9014
SWIDTH 334 0
DWIDTH 16 0
BBX 16 16 0 -3
BITMAP
0000
0000
0000
0000
0000
0000
0000
0000
0000
0000
0000
0000
0000
0000
0000
0000
ENDCHAR
STARTCHAR c2337
ENCODING 9015
SWIDTH 334 0
DWIDTH 16 0
BBX 16 16 0 -3
BITMAP
0000
0000
0000
0000
0000
0000
0000
0000
0000
0000
0000
0000
0000
0000
0000
0000
ENDCHAR
STARTCHAR c2338
ENCODING 9016
SWIDTH 334 0
DWIDTH 16 0
BBX 16 16 0 -3
BITMAP
0000
0000
0000
0000
0000
0000
0000
0000
0000
0000
0000
0000
0000
0000
0000
0000
ENDCHAR
STARTCHAR c2339
ENCODING 9017
SWIDTH 334 0
DWIDTH 16 0
BBX 16 16 0 -3
BITMAP
0000
0000
0000
0000
0000
0000
0000
0000
0000
0000
0000
0000
0000
0000
0000
0000
ENDCHAR
STARTCHAR c233a
ENCODING 9018
SWIDTH 334 0
DWIDTH 16 0
BBX 16 10 0 0
BITMAP
ffff
7fff
0030
13f0
09b0
0cb0
04f0
03f0
01f0
0050
ENDCHAR
STARTCHAR c233b
ENCODING 9019
SWIDTH 334 0
DWIDTH 16 0
BBX 16 16 0 -3
BITMAP
0000
0000
0000
0000
0000
0000
0000
0000
0000
0000
0000
0000
0000
0000
0000
0000
ENDCHAR
STARTCHAR c233c
ENCODING 9020
SWIDTH 334 0
DWIDTH 16 0
BBX 16 16 0 -3
BITMAP
0000
0000
0000
0000
0000
0000
0000
0000
0000
0000
0000
0000
0000
0000
0000
0000
ENDCHAR
STARTCHAR c233d
ENCODING 9021
SWIDTH 334 0
DWIDTH 16 0
BBX 16 16 0 -3
BITMAP
0000
0000
0000
0000
0000
0000
0000
0000
0000
0000
0000
0000
0000
0000
0000
0000
ENDCHAR
STARTCHAR c233e
ENCODING 9022
SWIDTH 334 0
DWIDTH 16 0
BBX 16 16 0 -3
BITMAP
0000
0000
0000
0000
0000
0000
0000
0000
0000
0000
0000
0000
0000
0000
0000
0000
ENDCHAR
STARTCHAR c233f
ENCODING 9023
SWIDTH 334 0
DWIDTH 16 0
BBX 16 11 0 -1
BITMAP
ffff
7fff
03e0
03c0
03c0
0de0
0460
03e0
0000
00c0
00c0
ENDCHAR
STARTCHAR c2340
ENCODING 9024
SWIDTH 334 0
DWIDTH 16 0
BBX 16 12 0 -2
BITMAP
ffff
7fff
03c0
07c0
0c00
0cc0
05e0
0330
01e0
0000
0080
0080
ENDCHAR
STARTCHAR c2341
ENCODING 9025
SWIDTH 334 0
DWIDTH 16 0
BBX 16 16 0 -3
BITMAP
0000
0000
0000
0000
0000
0000
0000
0000
0000
0000
0000
0000
0000
0000
0000
0000
ENDCHAR
STARTCHAR c2342
ENCODING 9026
SWIDTH 334 0
DWIDTH 16 0
BBX 16 16 0 -3
BITMAP
0000
0000
0000
0000
0000
0000
0000
0000
0000
0000
0000
0000
0000
0000
0000
0000
ENDCHAR
STARTCHAR c2343
ENCODING 9027
SWIDTH 334 0
DWIDTH 16 0
BBX 16 16 0 -3
BITMAP
0000
0000
0000
0000
0000
0000
0000
0000
0000
0000
0000
0000
0000
0000
0000
0000
ENDCHAR
STARTCHAR c2344
ENCODING 9028
SWIDTH 334 0
DWIDTH 16 0
BBX 16 16 0 -3
BITMAP
0000
0000
0000
0000
0000
0000
0000
0000
0000
0000
0000
0000
0000
0000
0000
0000
ENDCHAR
STARTCHAR c2345
ENCODING 9029
SWIDTH 334 0
DWIDTH 16 0
BBX 16 16 0 -3
BITMAP
0000
0000
0000
0000
0000
0000
0000
0000
0000
0000
0000
0000
0000
0000
0000
0000
ENDCHAR
STARTCHAR c2346
ENCODING 9030
SWIDTH 334 0
DWIDTH 16 0
BBX 16 16 0 -3
BITMAP
0000
0000
0000
0000
0000
0000
0000
0000
0000
0000
0000
0000
0000
0000
0000
0000
ENDCHAR
STARTCHAR c2347
ENCODING 9031
SWIDTH 334 0
DWIDTH 16 0
BBX 16 16 0 -3
BITMAP
0000
0000
0000
0000
0000
0000
0000
0000
0000
0000
0000
0000
0000
0000
0000
0000
ENDCHAR
STARTCHAR c2348
ENCODING 9032
SWIDTH 334 0
DWIDTH 16 0
BBX 16 16 0 -3
BITMAP
0000
0000
0000
0000
0000
0000
0000
0000
0000
0000
0000
0000
0000
0000
0000
0000
ENDCHAR
STARTCHAR c2349
ENCODING 9033
SWIDTH 334 0
DWIDTH 16 0
BBX 16 10 0 0
BITMAP
ffff
7fff
1980
19f0
09d8
0798
0398
01b0
0590
0480
ENDCHAR
STARTCHAR c234a
ENCODING 9034
SWIDTH 334 0
DWIDTH 16 0
BBX 16 10 0 0
BITMAP
03e0
07e0
0600
0600
0300
0d80
0cc0
04c0
07c0
0380
ENDCHAR
STARTCHAR c234b
ENCODING 9035
SWIDTH 334 0
DWIDTH 16 0
BBX 16 6 0 -3
BITMAP
0380
0780
0640
03c0
03e0
03e0
ENDCHAR
STARTCHAR c234c
ENCODING 9036
SWIDTH 334 0
DWIDTH 16 0
BBX 16 5 0 -3
BITMAP
07c0
0fe0
0d60
04e0
0070
ENDCHAR
STARTCHAR c234d
ENCODING 9037
SWIDTH 334 0
DWIDTH 16 0
BBX 16 6 0 -3
BITMAP
07c0
0fe0
0f60
04c0
00f0
00f0
ENDCHAR
STARTCHAR c234e
ENCODING 9038
SWIDTH 334 0
DWIDTH 16 0
BBX 16 16 0 -3
BITMAP
0000
0000
0000
0000
0000
0000
0000
0000
0000
0000
0000
0000
0000
0000
0000
0000
ENDCHAR
STARTCHAR c234f
ENCODING 9039
SWIDTH 334 0
DWIDTH 16 0
BBX 16 16 0 -3
BITMAP
0000
0000
0000
0000
0000
0000
0000
0000
0000
0000
0000
0000
0000
0000
0000
0000
ENDCHAR
STARTCHAR c2350
ENCODING 9040
SWIDTH 334 0
DWIDTH 16 0
BBX 16 10 0 0
BITMAP
ffff
7fff
0c18
0ff8
1ff8
1c18
0cf8
01f8
00d8
0008
ENDCHAR
STARTCHAR c2351
ENCODING 9041
SWIDTH 334 0
DWIDTH 16 0
BBX 16 10 0 -1
BITMAP
ffff
7fff
0c18
1ff8
3ff8
1f18
07f8
06f8
0318
0180
ENDCHAR
STARTCHAR c2352
ENCODING 9042
SWIDTH 334 0
DWIDTH 16 0
BBX 16 12 0 -2
BITMAP
ffff
7fff
07c0
0fc0
0400
07c0
07e0
0ce0
05c0
02e0
01e0
00c0
ENDCHAR
STARTCHAR c2353
ENCODING 9043
SWIDTH 334 0
DWIDTH 16 0
BBX 16 16 0 -3
BITMAP
0000
0000
0000
0000
0000
0000
0000
0000
0000
0000
0000
0000
0000
0000
0000
0000
ENDCHAR
STARTCHAR c2354
ENCODING 9044
SWIDTH 334 0
DWIDTH 16 0
BBX 16 16 0 -3
BITMAP
0000
0000
0000
0000
0000
0000
0000
0000
0000
0000
0000
0000
0000
0000
0000
0000
ENDCHAR
STARTCHAR c2355
ENCODING 9045
SWIDTH 334 0
DWIDTH 16 0
BBX 16 16 0 -3
BITMAP
0000
0000
0000
0000
0000
0000
0000
0000
0000
0000
0000
0000
0000
0000
0000
0000
ENDCHAR
STARTCHAR c2356
ENCODING 9046
SWIDTH 334 0
DWIDTH 16 0
BBX 16 16 0 -3
BITMAP
0000
0000
0000
0000
0000
0000
0000
0000
0000
0000
0000
0000
0000
0000
0000
0000
ENDCHAR
STARTCHAR c2357
ENCODING 9047
SWIDTH 334 0
DWIDTH 16 0
BBX 16 16 0 -3
BITMAP
0000
0000
0000
0000
0000
0000
0000
0000
0000
0000
0000
0000
0000
0000
0000
0000
ENDCHAR
STARTCHAR c2358
ENCODING 9048
SWIDTH 334 0
DWIDTH 16 0
BBX 16 16 0 -3
BITMAP
0000
0000
0000
0000
0000
0000
0000
0000
0000
0000
0000
0000
0000
0000
0000
0000
ENDCHAR
STARTCHAR c2359
ENCODING 9049
SWIDTH 334 0
DWIDTH 16 0
BBX 16 16 0 -3
BITMAP
0000
0000
0000
0000
0000
0000
0000
0000
0000
0000
0000
0000
0000
0000
0000
0000
ENDCHAR
STARTCHAR c235a
ENCODING 9050
SWIDTH 334 0
DWIDTH 16 0
BBX 16 16 0 -3
BITMAP
0000
0000
0000
0000
0000
0000
0000
0000
0000
0000
0000
0000
0000
0000
0000
0000
ENDCHAR
STARTCHAR c235b
ENCODING 9051
SWIDTH 334 0
DWIDTH 16 0
BBX 16 16 0 -3
BITMAP
0000
0000
0000
0000
0000
0000
0000
0000
0000
0000
0000
0000
0000
0000
0000
0000
ENDCHAR
STARTCHAR c235c
ENCODING 9052
SWIDTH 334 0
DWIDTH 16 0
BBX 16 16 0 -3
BITMAP
0000
0000
0000
0000
0000
0000
0000
0000
0000
0000
0000
0000
0000
0000
0000
0000
ENDCHAR
STARTCHAR c235d
ENCODING 9053
SWIDTH 334 0
DWIDTH 16 0
BBX 16 16 0 -3
BITMAP
0000
0000
0000
0000
0000
0000
0000
0000
0000
0000
0000
0000
0000
0000
0000
0000
ENDCHAR
STARTCHAR c235e
ENCODING 9054
SWIDTH 334 0
DWIDTH 16 0
BBX 16 16 0 -3
BITMAP
0000
0000
0000
0000
0000
0000
0000
0000
0000
0000
0000
0000
0000
0000
0000
0000
ENDCHAR
STARTCHAR c235f
ENCODING 9055
SWIDTH 334 0
DWIDTH 16 0
BBX 16 16 0 -3
BITMAP
0000
0000
0000
0000
0000
0000
0000
0000
0000
0000
0000
0000
0000
0000
0000
0000
ENDCHAR
STARTCHAR c2360
ENCODING 9056
SWIDTH 334 0
DWIDTH 16 0
BBX 16 10 0 -1
BITMAP
ffff
7fff
0f70
0ff0
0cf0
0e70
0ff0
0cf0
0c90
0400
ENDCHAR
STARTCHAR c2361
ENCODING 9057
SWIDTH 334 0
DWIDTH 16 0
BBX 16 11 0 -1
BITMAP
ffff
7fff
03e0
07e0
0460
07e0
03e0
03e0
07e0
0660
0020
ENDCHAR
STARTCHAR c2362
ENCODING 9058
SWIDTH 334 0
DWIDTH 16 0
BBX 16 12 0 -3
BITMAP
ffff
7fff
07e0
0c60
07e0
03e0
03e0
07e0
0460
03e0
01e0
0020
ENDCHAR
STARTCHAR c2363
ENCODING 9059
SWIDTH 334 0
DWIDTH 16 0
BBX 16 10 0 0
BITMAP
ffff
7fff
05b0
0ff0
0ef0
0030
07f0
0330
01f0
00f0
ENDCHAR
STARTCHAR c2364
ENCODING 9060
SWIDTH 334 0
DWIDTH 16 0
BBX 16 10 0 0
BITMAP
ffff
7fff
05b0
0ff0
0ef0
0030
03f0
07f0
0330
0010
ENDCHAR
STARTCHAR c2365
ENCODING 9061
SWIDTH 334 0
DWIDTH 16 0
BBX 16 10 0 0
BITMAP
ffff
7fff
0f30
0fb0
1cf0
03f0
03f0
03f0
01f0
0030
ENDCHAR
STARTCHAR c2366
ENCODING 9062
SWIDTH 334 0
DWIDTH 16 0
BBX 16 10 0 0
BITMAP
ffff
7fff
1b60
1f60
3de0
0060
1fe0
13e0
1960
0c20
ENDCHAR
STARTCHAR c2367
ENCODING 9063
SWIDTH 334 0
DWIDTH 16 0
BBX 16 10 0 0
BITMAP
ffff
7fff
0f30
0fb0
1cf0
03f0
03f0
0370
01f0
0030
ENDCHAR
STARTCHAR c2368
ENCODING 9064
SWIDTH 334 0
DWIDTH 16 0
BBX 16 13 0 -3
BITMAP
ffff
7fff
7e18
6e18
2e18
3c18
7018
6318
3f38
1ff8
0618
0c18
0c00
ENDCHAR
STARTCHAR c2369
ENCODING 9065
SWIDTH 334 0
DWIDTH 16 0
BBX 16 10 0 0
BITMAP
ffff
7fff
3f18
3f98
3ed8
38d8
31f8
3ef8
1e18
0008
ENDCHAR
STARTCHAR c236a
ENCODING 9066
SWIDTH 334 0
DWIDTH 16 0
BBX 16 13 0 -3
BITMAP
ffff
7fff
0dc0
0cc0
05c0
07c0
0600
0c20
07e0
0fc0
04c0
07c0
00c0
ENDCHAR
STARTCHAR c236b
ENCODING 9067
SWIDTH 334 0
DWIDTH 16 0
BBX 16 10 0 0
BITMAP
ffff
7fff
0fc0
0dc0
05c0
03c0
0700
0c00
07f0
03c0
ENDCHAR
STARTCHAR c236c
ENCODING 9068
SWIDTH 334 0
DWIDTH 16 0
BBX 16 10 0 0
BITMAP
ffff
7fff
0fc0
0dc0
05c0
07c0
0e20
0430
07f0
03e0
ENDCHAR
STARTCHAR c236d
ENCODING 9069
SWIDTH 334 0
DWIDTH 16 0
BBX 16 10 0 0
BITMAP
ffff
7fff
0c30
3c30
3ff0
1bf0
09f0
09f0
05b0
0230
ENDCHAR
STARTCHAR c236e
ENCODING 9070
SWIDTH 334 0
DWIDTH 16 0
BBX 16 10 0 0
BITMAP
ffff
7fff
0630
1c30
1ff0
0df0
0cf0
05f0
07b0
0330
ENDCHAR
STARTCHAR c236f
ENCODING 9071
SWIDTH 334 0
DWIDTH 16 0
BBX 16 16 0 -3
BITMAP
0000
0000
0000
0000
0000
0000
0000
0000
0000
0000
0000
0000
0000
0000
0000
0000
ENDCHAR
STARTCHAR c2370
ENCODING 9072
SWIDTH 334 0
DWIDTH 16 0
BBX 16 12 0 -3
BITMAP
ffff
7fff
0f80
1f00
1fe0
0ff0
1bf0
1bf0
09b0
0610
0380
00c0
ENDCHAR
STARTCHAR c2371
ENCODING 9073
SWIDTH 334 0
DWIDTH 16 0
BBX 16 12 0 -3
BITMAP
ffff
7fff
03f0
07e0
03e0
03f0
0718
0678
0f70
1f80
1c70
0c38
ENDCHAR
STARTCHAR c2372
ENCODING 9074
SWIDTH 334 0
DWIDTH 16 0
BBX 16 12 0 -3
BITMAP
ffff
7fff
1f30
3f30
1c30
1e30
3930
33f0
13f0
0db0
0710
0180
ENDCHAR
STARTCHAR c2373
ENCODING 9075
SWIDTH 334 0
DWIDTH 16 0
BBX 16 12 0 -3
BITMAP
ffff
7fff
1f30
3f30
1e30
1f30
39b0
33f0
11f0
0cf0
0710
0180
ENDCHAR
STARTCHAR c2374
ENCODING 9076
SWIDTH 334 0
DWIDTH 16 0
BBX 16 12 0 -3
BITMAP
ffff
7fff
03f0
07e0
03e0
03f0
0718
0678
0370
0780
1c70
0838
ENDCHAR
STARTCHAR c2375
ENCODING 9077
SWIDTH 334 0
DWIDTH 16 0
BBX 16 12 0 -3
BITMAP
ffff
7fff
01f8
03f0
01f0
01f8
378c
7f1c
6598
32e0
1c3c
060c
ENDCHAR
STARTCHAR c2376
ENCODING 9078
SWIDTH 334 0
DWIDTH 16 0
BBX 16 12 0 -3
BITMAP
ffff
7fff
03f0
07e0
03e0
03f0
0718
0678
1f70
3f80
1ff0
0f38
ENDCHAR
STARTCHAR c2377
ENCODING 9079
SWIDTH 334 0
DWIDTH 16 0
BBX 16 16 0 -3
BITMAP
0000
0000
0000
0000
0000
0000
0000
0000
0000
0000
0000
0000
0000
0000
0000
0000
ENDCHAR
STARTCHAR c2378
ENCODING 9080
SWIDTH 334 0
DWIDTH 16 0
BBX 16 16 0 -3
BITMAP
0000
0000
0000
0000
0000
0000
0000
0000
0000
0000
0000
0000
0000
0000
0000
0000
ENDCHAR
STARTCHAR c2379
ENCODING 9081
SWIDTH 334 0
DWIDTH 16 0
BBX 16 16 0 -3
BITMAP
0000
0000
0000
0000
0000
0000
0000
0000
0000
0000
0000
0000
0000
0000
0000
0000
ENDCHAR
STARTCHAR c237a
ENCODING 9082
SWIDTH 334 0
DWIDTH 16 0
BBX 16 16 0 -3
BITMAP
0000
0000
0000
0000
0000
0000
0000
0000
0000
0000
0000
0000
0000
0000
0000
0000
ENDCHAR
STARTCHAR c237b
ENCODING 9083
SWIDTH 334 0
DWIDTH 16 0
BBX 16 16 0 -3
BITMAP
0000
0000
0000
0000
0000
0000
0000
0000
0000
0000
0000
0000
0000
0000
0000
0000
ENDCHAR
STARTCHAR c237c
ENCODING 9084
SWIDTH 334 0
DWIDTH 16 0
BBX 16 16 0 -3
BITMAP
0000
0000
0000
0000
0000
0000
0000
0000
0000
0000
0000
0000
0000
0000
0000
0000
ENDCHAR
STARTCHAR c237d
ENCODING 9085
SWIDTH 334 0
DWIDTH 16 0
BBX 16 16 0 -3
BITMAP
0000
0000
0000
0000
0000
0000
0000
0000
0000
0000
0000
0000
0000
0000
0000
0000
ENDCHAR
STARTCHAR c237e
ENCODING 9086
SWIDTH 334 0
DWIDTH 16 0
BBX 16 16 0 -3
BITMAP
0000
0000
0000
0000
0000
0000
0000
0000
0000
0000
0000
0000
0000
0000
0000
0000
ENDCHAR
STARTCHAR c2421
ENCODING 9249
SWIDTH 334 0
DWIDTH 16 0
BBX 16 12 0 -3
BITMAP
ffff
7fff
7f98
3fd8
3ed8
7ed8
6678
2638
1e18
0f00
0d00
1c00
ENDCHAR
STARTCHAR c2422
ENCODING 9250
SWIDTH 334 0
DWIDTH 16 0
BBX 16 10 0 0
BITMAP
ffff
7fff
7fc0
3ff8
07ec
3fcc
7fcc
63cc
30c8
1840
ENDCHAR
STARTCHAR c2423
ENCODING 9251
SWIDTH 334 0
DWIDTH 16 0
BBX 16 10 0 0
BITMAP
ffff
7fff
7f98
3fd8
3ed8
7fd8
66f8
2678
1618
0a08
ENDCHAR
STARTCHAR c2424
ENCODING 9252
SWIDTH 334 0
DWIDTH 16 0
BBX 16 10 0 0
BITMAP
ffff
7fff
3f18
7f98
6dd8
6d98
3cf8
3cf8
7c18
3408
ENDCHAR
STARTCHAR c2425
ENCODING 9253
SWIDTH 334 0
DWIDTH 16 0
BBX 16 10 0 0
BITMAP
ffff
7fff
3f98
7fd8
06d8
0f98
7ef8
36f8
0618
0208
ENDCHAR
STARTCHAR c2426
ENCODING 9254
SWIDTH 334 0
DWIDTH 16 0
BBX 16 10 0 0
BITMAP
ffff
7fff
7f98
ffd8
7ed8
3fd8
7ef8
7ef8
7e18
0208
ENDCHAR
STARTCHAR c2427
ENCODING 9255
SWIDTH 334 0
DWIDTH 16 0
BBX 16 10 0 0
BITMAP
ffff
7fff
1ff0
3ff0
1f98
0f90
1fe0
19f0
1f98
0090
ENDCHAR
STARTCHAR c2428
ENCODING 9256
SWIDTH 334 0
DWIDTH 16 0
BBX 16 10 0 0
BITMAP
ffff
7fff
1f00
1fe0
1fb0
3f30
3330
1330
0b30
0500
ENDCHAR
STARTCHAR c2429
ENCODING 9257
SWIDTH 334 0
DWIDTH 16 0
BBX 16 10 0 0
BITMAP
ffff
7fff
0f80
0ff0
0dd8
0d98
0f98
0198
0f90
0480
ENDCHAR
STARTCHAR c242a
ENCODING 9258
SWIDTH 334 0
DWIDTH 16 0
BBX 16 10 0 0
BITMAP
ffff
7fff
3f18
7f98
6cd8
6ff8
3ff8
0d98
0c18
0408
ENDCHAR
STARTCHAR c242b
ENCODING 9259
SWIDTH 334 0
DWIDTH 16 0
BBX 16 10 0 0
BITMAP
ffff
7fff
3f18
7f98
6dd8
6d98
3cf8
0cf8
0c18
0408
ENDCHAR
STARTCHAR c242c
ENCODING 9260
SWIDTH 334 0
DWIDTH 16 0
BBX 16 10 0 0
BITMAP
7ffe
3ffe
0780
0ff0
0dd8
3f98
3f98
3598
1590
0880
ENDCHAR
STARTCHAR c242d
ENCODING 9261
SWIDTH 334 0
DWIDTH 16 0
BBX 16 10 0 0
BITMAP
ffff
7fff
1fe0
3ff0
1f98
0f98
1f98
1fb0
1f90
0080
ENDCHAR
STARTCHAR c242e
ENCODING 9262
SWIDTH 334 0
DWIDTH 16 0
BBX 16 10 0 0
BITMAP
0eff
1f7f
1b30
1f70
0ff0
1fb0
1bb0
0bb0
07b0
00b0
ENDCHAR
STARTCHAR c242f
ENCODING 9263
SWIDTH 334 0
DWIDTH 16 0
BBX 16 10 0 -1
BITMAP
ffff
7fff
0760
07e0
0ce0
07e0
03e0
07e0
07e0
0200
ENDCHAR
STARTCHAR c2430
ENCODING 9264
SWIDTH 334 0
DWIDTH 16 0
BBX 16 13 0 -3
BITMAP
ffff
7fff
1f18
3e18
1ed8
6f18
2318
1f18
7f98
3e98
1f98
3ff8
16f8
ENDCHAR
STARTCHAR c2431
ENCODING 9265
SWIDTH 334 0
DWIDTH 16 0
BBX 16 13 0 -3
BITMAP
ffff
7fff
03e0
03c8
03d8
0ce0
0460
3be0
3fe0
3fe0
3f60
3fe0
3c60
ENDCHAR
STARTCHAR c2432
ENCODING 9266
SWIDTH 334 0
DWIDTH 16 0
BBX 16 13 0 -3
BITMAP
ffff
7fff
07c0
0f80
07b0
1bc0
0fc0
0780
1fc0
0fc0
0fe0
0de0
0de0
ENDCHAR
STARTCHAR c2433
ENCODING 9267
SWIDTH 334 0
DWIDTH 16 0
BBX 16 13 0 -3
BITMAP
ffff
7fff
03c0
07d0
03d8
09e0
0fe0
0fc0
0fc0
0fc0
0fc0
0cc0
0fc0
ENDCHAR
STARTCHAR c2434
ENCODING 9268
SWIDTH 334 0
DWIDTH 16 0
BBX 16 13 0 -3
BITMAP
ffff
7fff
03c0
07d0
03d8
09e0
0ce0
07c0
04c0
06c0
05c0
07c0
07c0
ENDCHAR
STARTCHAR c2435
ENCODING 9269
SWIDTH 334 0
DWIDTH 16 0
BBX 16 13 0 -3
BITMAP
ffff
7fff
1f18
3e18
1ed8
6f18
2318
1e18
3f98
7fd8
3fd8
1ef8
06f8
ENDCHAR
STARTCHAR c2436
ENCODING 9270
SWIDTH 334 0
DWIDTH 16 0
BBX 16 13 0 -3
BITMAP
ffff
7fff
1f18
3e18
1ed8
6f18
3318
3f18
7318
7f38
3df8
1ff8
0f08
ENDCHAR
STARTCHAR c2437
ENCODING 9271
SWIDTH 334 0
DWIDTH 16 0
BBX 16 13 0 -3
BITMAP
ffff
7fff
1f18
3e18
1ed8
6f18
2318
1f98
18d8
3bb8
19f8
18f8
0008
ENDCHAR
STARTCHAR c2438
ENCODING 9272
SWIDTH 334 0
DWIDTH 16 0
BBX 16 13 0 -3
BITMAP
ffff
7fff
1f18
3e18
1ed8
6f18
2318
3f18
3318
3b38
37f8
1ef8
0008
ENDCHAR
STARTCHAR c2439
ENCODING 9273
SWIDTH 334 0
DWIDTH 16 0
BBX 16 13 0 -3
BITMAP
ffff
7fff
07c0
0f80
07b0
1bc0
08c0
0780
0fc0
0fe0
0de0
07e0
01e0
ENDCHAR
STARTCHAR c243a
ENCODING 9274
SWIDTH 334 0
DWIDTH 16 0
BBX 16 13 0 -3
BITMAP
ffff
7fff
03c0
07d0
03d8
09e0
0ce0
07c0
06c0
0fc0
0fc0
07c0
03c0
ENDCHAR
STARTCHAR c243b
ENCODING 9275
SWIDTH 334 0
DWIDTH 16 0
BBX 16 13 0 -3
BITMAP
ffff
7fff
07c0
0f80
07b0
1bc0
08c0
07c0
06c0
06c0
0ec0
06c0
00c0
ENDCHAR
STARTCHAR c243c
ENCODING 9276
SWIDTH 334 0
DWIDTH 16 0
BBX 16 13 0 -3
BITMAP
ffff
7fff
03c0
07d0
03d8
09e0
0ce0
07c0
04c0
06c0
04c0
07c0
00c0
ENDCHAR
STARTCHAR c243d
ENCODING 9277
SWIDTH 334 0
DWIDTH 16 0
BBX 16 13 0 -3
BITMAP
ffff
7fff
03c0
07d0
03d8
09e0
0ce0
07c0
07c0
0790
08d0
0fe0
0fe0
ENDCHAR
STARTCHAR c243e
ENCODING 9278
SWIDTH 334 0
DWIDTH 16 0
BBX 16 13 0 -3
BITMAP
ffff
7fff
03c0
07d0
03d8
09e0
0ce0
07c0
00c0
03c0
07c0
07c0
00c0
ENDCHAR
STARTCHAR c243f
ENCODING 9279
SWIDTH 334 0
DWIDTH 16 0
BBX 16 13 0 -3
BITMAP
ffff
7fff
1f18
3e18
1ed8
6f18
2318
1f18
0318
07f8
07f8
0618
0008
ENDCHAR
STARTCHAR c2440
ENCODING 9280
SWIDTH 334 0
DWIDTH 16 0
BBX 16 13 0 -3
BITMAP
ffff
7fff
1f18
3e18
1ed8
6f18
2318
1f98
00d8
01b8
01f8
0078
0008
ENDCHAR
STARTCHAR c2441
ENCODING 9281
SWIDTH 334 0
DWIDTH 16 0
BBX 16 10 0 0
BITMAP
ffff
7fff
0030
0ff0
0330
0ff0
07f0
0630
07f0
03f0
ENDCHAR
STARTCHAR c2442
ENCODING 9282
SWIDTH 334 0
DWIDTH 16 0
BBX 16 10 0 0
BITMAP
ffff
7fff
0ff0
07f0
0670
03f0
0fb0
0330
0ff0
0e30
ENDCHAR
STARTCHAR c2443
ENCODING 9283
SWIDTH 334 0
DWIDTH 16 0
BBX 16 10 0 0
BITMAP
ffff
7fff
7b86
fbc6
43c6
3fc6
3fc6
318e
3ffe
1e7a
ENDCHAR
STARTCHAR c2444
ENCODING 9284
SWIDTH 334 0
DWIDTH 16 0
BBX 16 10 0 0
BITMAP
ffff
7fff
0018
27f8
3218
3318
1b38
0ff8
07d8
0088
ENDCHAR
STARTCHAR c2445
ENCODING 9285
SWIDTH 334 0
DWIDTH 16 0
BBX 16 11 0 -1
BITMAP
ffff
7fff
0060
07e0
04e0
0660
0360
0f60
0f60
0720
0080
ENDCHAR
STARTCHAR c2446
ENCODING 9286
SWIDTH 334 0
DWIDTH 16 0
BBX 16 10 0 0
BITMAP
ffff
7fff
0e30
03f0
0ff0
0e30
0ff0
0730
07f0
03f0
ENDCHAR
STARTCHAR c2447
ENCODING 9287
SWIDTH 334 0
DWIDTH 16 0
BBX 16 10 0 0
BITMAP
ffff
7fff
0c30
07f0
1ff0
0c30
1bf0
0930
07b0
0310
ENDCHAR
STARTCHAR c2448
ENCODING 9288
SWIDTH 334 0
DWIDTH 16 0
BBX 16 13 0 -3
BITMAP
ffff
7fff
03c0
0f80
0c00
0fe0
07c0
0780
0fc0
0fe0
07e0
01e0
0080
ENDCHAR
STARTCHAR c2449
ENCODING 9289
SWIDTH 334 0
DWIDTH 16 0
BBX 16 13 0 -3
BITMAP
ffff
7fff
03c0
07c0
0c00
07e0
03e0
00c0
03c0
07c0
0400
07f0
03c0
ENDCHAR
STARTCHAR c244a
ENCODING 9290
SWIDTH 334 0
DWIDTH 16 0
BBX 16 13 0 -3
BITMAP
ffff
7fff
03c0
07c0
0c00
07e0
03e0
00c0
03c0
07e0
0430
07f0
03e0
ENDCHAR
STARTCHAR c244b
ENCODING 9291
SWIDTH 334 0
DWIDTH 16 0
BBX 16 10 0 0
BITMAP
ffff
7fff
0718
1e98
38d8
30d8
31f8
1ef8
0618
0008
ENDCHAR
STARTCHAR c244c
ENCODING 9292
SWIDTH 334 0
DWIDTH 16 0
BBX 16 10 0 0
BITMAP
ffff
7fff
0330
0f30
18b0
18f0
0fb0
0730
01f0
00d0
ENDCHAR
STARTCHAR c244d
ENCODING 9293
SWIDTH 334 0
DWIDTH 16 0
BBX 16 13 0 -3
BITMAP
ffff
7fff
1f18
3e18
1e18
6f18
2318
1f98
18d8
3bb8
19f8
18f8
0008
ENDCHAR
STARTCHAR c244e
ENCODING 9294
SWIDTH 334 0
DWIDTH 16 0
BBX 16 13 0 -3
BITMAP
ffff
7fff
03e0
03c0
03c0
0ce0
0460
03e0
0660
0360
06e0
03e0
0360
ENDCHAR
STARTCHAR c244f
ENCODING 9295
SWIDTH 334 0
DWIDTH 16 0
BBX 16 12 0 -3
BITMAP
ffff
7fff
0f18
1f18
0f18
2798
1ff8
0ff8
0e18
0f00
0d00
1800
ENDCHAR
STARTCHAR c2450
ENCODING 9296
SWIDTH 334 0
DWIDTH 16 0
BBX 16 13 0 -3
BITMAP
ffff
7fff
03c0
07c0
03c0
09e0
0ce0
07c0
03c0
03c0
07c0
07c0
00c0
ENDCHAR
STARTCHAR c2451
ENCODING 9297
SWIDTH 334 0
DWIDTH 16 0
BBX 16 12 0 -3
BITMAP
ffff
7fff
03c0
07c0
03c0
09e0
07e0
07c0
04c0
06c0
07c0
03c0
ENDCHAR
STARTCHAR c2452
ENCODING 9298
SWIDTH 334 0
DWIDTH 16 0
BBX 16 13 0 -3
BITMAP
ffff
7fff
03c0
03c0
0380
0ce0
04e0
03c0
03c0
0300
00c0
07e0
07e0
ENDCHAR
STARTCHAR c2453
ENCODING 9299
SWIDTH 334 0
DWIDTH 16 0
BBX 16 13 0 -3
BITMAP
ffff
7fff
1f18
3e18
1e18
6f18
2318
1f18
0318
07f8
07f8
0618
0008
ENDCHAR
STARTCHAR c2454
ENCODING 9300
SWIDTH 334 0
DWIDTH 16 0
BBX 16 10 0 0
BITMAP
ffff
7fff
0f18
1f18
0e18
2718
31f8
1ff8
0e18
0008
ENDCHAR
STARTCHAR c2455
ENCODING 9301
SWIDTH 334 0
DWIDTH 16 0
BBX 16 16 0 -3
BITMAP
0000
0000
0000
0000
0000
0000
0000
0000
0000
0000
0000
0000
0000
0000
0000
0000
ENDCHAR
STARTCHAR c2456
ENCODING 9302
SWIDTH 334 0
DWIDTH 16 0
BBX 16 16 0 -3
BITMAP
0000
0000
0000
0000
0000
0000
0000
0000
0000
0000
0000
0000
0000
0000
0000
0000
ENDCHAR
STARTCHAR c2457
ENCODING 9303
SWIDTH 334 0
DWIDTH 16 0
BBX 16 16 0 -3
BITMAP
0000
0000
0000
0000
0000
0000
0000
0000
0000
0000
0000
0000
0000
0000
0000
0000
ENDCHAR
STARTCHAR c2458
ENCODING 9304
SWIDTH 334 0
DWIDTH 16 0
BBX 16 16 0 -3
BITMAP
0000
0000
0000
0000
0000
0000
0000
0000
0000
0000
0000
0000
0000
0000
0000
0000
ENDCHAR
STARTCHAR c2459
ENCODING 9305
SWIDTH 334 0
DWIDTH 16 0
BBX 16 16 0 -3
BITMAP
0000
0000
0000
0000
0000
0000
0000
0000
0000
0000
0000
0000
0000
0000
0000
0000
ENDCHAR
STARTCHAR c245a
ENCODING 9306
SWIDTH 334 0
DWIDTH 16 0
BBX 16 16 0 -3
BITMAP
0000
0000
0000
0000
0000
0000
0000
0000
0000
0000
0000
0000
0000
0000
0000
0000
ENDCHAR
STARTCHAR c245b
ENCODING 9307
SWIDTH 334 0
DWIDTH 16 0
BBX 16 16 0 -3
BITMAP
0000
0000
0000
0000
0000
0000
0000
0000
0000
0000
0000
0000
0000
0000
0000
0000
ENDCHAR
STARTCHAR c245c
ENCODING 9308
SWIDTH 334 0
DWIDTH 16 0
BBX 16 16 0 -3
BITMAP
0000
0000
0000
0000
0000
0000
0000
0000
0000
0000
0000
0000
0000
0000
0000
0000
ENDCHAR
STARTCHAR c245d
ENCODING 9309
SWIDTH 334 0
DWIDTH 16 0
BBX 16 16 0 -3
BITMAP
0000
0000
0000
0000
0000
0000
0000
0000
0000
0000
0000
0000
0000
0000
0000
0000
ENDCHAR
STARTCHAR c245e
ENCODING 9310
SWIDTH 334 0
DWIDTH 16 0
BBX 16 16 0 -3
BITMAP
0000
0000
0000
0000
0000
0000
0000
0000
0000
0000
0000
0000
0000
0000
0000
0000
ENDCHAR
STARTCHAR c245f
ENCODING 9311
SWIDTH 334 0
DWIDTH 16 0
BBX 16 16 0 -3
BITMAP
0000
0000
0000
0000
0000
0000
0000
0000
0000
0000
0000
0000
0000
0000
0000
0000
ENDCHAR
STARTCHAR c2460
ENCODING 9312
SWIDTH 334 0
DWIDTH 16 0
BBX 16 10 0 0
BITMAP
ffff
7fff
0f98
1f98
3018
3318
1798
0cf8
07f8
0008
ENDCHAR
STARTCHAR c2461
ENCODING 9313
SWIDTH 334 0
DWIDTH 16 0
BBX 16 10 0 0
BITMAP
ffff
7fff
0030
0ff0
0630
0630
0230
0230
0130
0090
ENDCHAR
STARTCHAR c2462
ENCODING 9314
SWIDTH 334 0
DWIDTH 16 0
BBX 16 10 0 0
BITMAP
ffff
7fff
0030
0ff0
0c30
0df0
0df0
0cb0
0430
0210
ENDCHAR
STARTCHAR c2463
ENCODING 9315
SWIDTH 334 0
DWIDTH 16 0
BBX 16 12 0 -3
BITMAP
ffff
7fff
0fb0
1f30
1f30
0fb0
1830
09b0
07b0
0330
03f0
01f0
ENDCHAR
STARTCHAR c2464
ENCODING 9316
SWIDTH 334 0
DWIDTH 16 0
BBX 16 10 0 0
BITMAP
ffff
7fff
0fd8
2f98
3c18
1d98
1f98
1b38
1ff8
0f08
ENDCHAR
STARTCHAR c2465
ENCODING 9317
SWIDTH 334 0
DWIDTH 16 0
BBX 16 10 0 0
BITMAP
ffff
7fff
07d8
0fd8
2598
13d8
0fd8
0cf8
0c38
0c08
ENDCHAR
STARTCHAR c2466
ENCODING 9318
SWIDTH 334 0
DWIDTH 16 0
BBX 16 11 0 -1
BITMAP
ffff
7fff
0fb0
1f30
1830
1930
0fb0
0730
03f0
0670
0c00
ENDCHAR
STARTCHAR c2467
ENCODING 9319
SWIDTH 334 0
DWIDTH 16 0
BBX 16 10 0 -1
BITMAP
ffff
7fff
0fb0
1f30
1930
0fb0
0f30
1f70
1ff0
0ec0
ENDCHAR
STARTCHAR c2468
ENCODING 9320
SWIDTH 334 0
DWIDTH 16 0
BBX 16 13 0 -3
BITMAP
ffff
7fff
03e0
07c0
0c00
04e0
07e0
07e0
06c0
0ec0
05c0
03c0
0340
ENDCHAR
STARTCHAR c2469
ENCODING 9321
SWIDTH 334 0
DWIDTH 16 0
BBX 16 13 0 -3
BITMAP
ffff
7fff
03e0
07c0
0700
0fe0
0460
0760
0c60
07e0
03e0
03e0
0300
ENDCHAR
STARTCHAR c246a
ENCODING 9322
SWIDTH 334 0
DWIDTH 16 0
BBX 16 12 0 -3
BITMAP
ffff
7fff
03e0
07c0
06c0
03e0
0700
0260
03e0
07e0
03f0
01c0
ENDCHAR
STARTCHAR c246b
ENCODING 9323
SWIDTH 334 0
DWIDTH 16 0
BBX 16 12 0 -3
BITMAP
ffff
7fff
03e0
07c0
0640
1ae0
1be0
0fe0
0e20
1ff0
1fd8
0f00
ENDCHAR
STARTCHAR c246c
ENCODING 9324
SWIDTH 334 0
DWIDTH 16 0
BBX 16 13 0 -3
BITMAP
ffff
7fff
03e0
07c0
0c00
04e0
07e0
07e0
06c0
0ec0
04c0
00c0
0040
ENDCHAR
STARTCHAR c246d
ENCODING 9325
SWIDTH 334 0
DWIDTH 16 0
BBX 16 12 0 -3
BITMAP
ffff
7fff
03e0
07c0
07c0
0fe0
0660
0760
0ce0
07e0
03e0
0020
ENDCHAR
STARTCHAR c246e
ENCODING 9326
SWIDTH 334 0
DWIDTH 16 0
BBX 16 12 0 -2
BITMAP
ffff
7fff
07c0
0fc0
0400
07c0
07c0
0400
03e0
03c0
0060
0020
ENDCHAR
STARTCHAR c246f
ENCODING 9327
SWIDTH 334 0
DWIDTH 16 0
BBX 16 12 0 -2
BITMAP
ffff
7fff
03e0
07e0
0600
16c0
1be0
0be0
0620
0670
03f0
0008
ENDCHAR
STARTCHAR c2470
ENCODING 9328
SWIDTH 334 0
DWIDTH 16 0
BBX 16 11 0 -1
BITMAP
ffff
7fff
07c0
0fc0
0400
07c0
03c0
03c0
07c0
06c0
0040
ENDCHAR
STARTCHAR c2471
ENCODING 9329
SWIDTH 334 0
DWIDTH 16 0
BBX 16 12 0 -2
BITMAP
ffff
7fff
0fc0
0f80
0c00
0d80
07c0
0fc0
0fc0
0fc0
07e0
0030
ENDCHAR
STARTCHAR c2472
ENCODING 9330
SWIDTH 334 0
DWIDTH 16 0
BBX 16 10 0 0
BITMAP
ffff
7fff
03e0
07e0
0200
19c0
0ce0
0fe0
0fe0
0e20
ENDCHAR
STARTCHAR c2473
ENCODING 9331
SWIDTH 334 0
DWIDTH 16 0
BBX 16 10 0 0
BITMAP
ffff
7fff
0fb0
0fb0
0c30
0430
07f0
0330
0030
0030
ENDCHAR
STARTCHAR c2474
ENCODING 9332
SWIDTH 334 0
DWIDTH 16 0
BBX 16 10 0 0
BITMAP
ffff
7fff
0fb0
1fb0
1830
1b30
0fb0
0730
01f0
00d0
ENDCHAR
STARTCHAR c2475
ENCODING 9333
SWIDTH 334 0
DWIDTH 16 0
BBX 16 12 0 -2
BITMAP
ffff
7fff
0fc0
0f80
0c00
0d80
07c0
0fc0
0cc0
0fc0
07e0
0030
ENDCHAR
STARTCHAR c2476
ENCODING 9334
SWIDTH 334 0
DWIDTH 16 0
BBX 16 10 0 -1
BITMAP
0dff
0cff
0760
07e0
0ce0
07e0
03e0
07e0
07e0
0200
ENDCHAR
STARTCHAR c2477
ENCODING 9335
SWIDTH 334 0
DWIDTH 16 0
BBX 16 10 0 0
BITMAP
ffff
7fff
0e30
0f30
0cf0
03f0
0730
0730
0730
0030
ENDCHAR
STARTCHAR c2478
ENCODING 9336
SWIDTH 334 0
DWIDTH 16 0
BBX 16 10 0 0
BITMAP
ffff
7fff
0460
0660
03e0
07e0
0e60
0460
0660
0320
ENDCHAR
STARTCHAR c2479
ENCODING 9337
SWIDTH 334 0
DWIDTH 16 0
BBX 16 10 0 0
BITMAP
ffff
7fff
0cc0
04c0
03c0
01c0
00c0
0fc0
0fc0
0440
ENDCHAR
STARTCHAR c247a
ENCODING 9338
SWIDTH 334 0
DWIDTH 16 0
BBX 16 10 0 0
BITMAP
ffff
7fff
0230
0330
01f0
0cf0
1ff0
1930
0d30
0630
ENDCHAR
STARTCHAR c247b
ENCODING 9339
SWIDTH 334 0
DWIDTH 16 0
BBX 16 11 0 -1
BITMAP
ffff
7fff
03e0
07e0
0560
07e0
03e0
03e0
07e0
0660
0020
ENDCHAR
STARTCHAR c247c
ENCODING 9340
SWIDTH 334 0
DWIDTH 16 0
BBX 16 12 0 -3
BITMAP
ffff
7fff
07e0
0f60
07e0
03e0
03e0
07e0
05e0
03e0
01e0
0020
ENDCHAR
STARTCHAR c247d
ENCODING 9341
SWIDTH 334 0
DWIDTH 16 0
BBX 16 12 0 -3
BITMAP
ffff
7fff
07e0
0f60
07e0
03e0
03e0
07e0
0460
03e0
01e0
0020
ENDCHAR
STARTCHAR c247e
ENCODING 9342
SWIDTH 334 0
DWIDTH 16 0
BBX 16 10 0 0
BITMAP
70ff
387f
0830
1ff0
3ff0
1c30
09f0
03f0
01b0
0030
ENDCHAR
ENDFONT
